<mxfile host="Electron" agent="Mozilla/5.0 (Windows NT 10.0; Win64; x64) AppleWebKit/537.36 (KHTML, like Gecko) draw.io/26.0.7 Chrome/128.0.6613.186 Electron/32.2.5 Safari/537.36" version="26.0.7">
  <diagram name="Page-1" id="BT2D-0DKCGHc0pGnwFKk">
    <mxGraphModel dx="724" dy="428" grid="1" gridSize="10" guides="1" tooltips="1" connect="1" arrows="1" fold="1" page="1" pageScale="1" pageWidth="850" pageHeight="1100" math="0" shadow="0">
      <root>
        <mxCell id="0" />
        <mxCell id="1" parent="0" />
        <mxCell id="OvyV4AKk17MS43cgxUak-2" value="" style="rounded=0;whiteSpace=wrap;html=1;" vertex="1" parent="1">
          <mxGeometry x="360" y="160" width="330" height="240" as="geometry" />
        </mxCell>
        <mxCell id="VmMUlvY6stepmoY7ygG8-1" value="Quản lý môn học" style="ellipse;whiteSpace=wrap;html=1;fillColor=#ffe6cc;strokeColor=#d79b00;fontSize=14;" parent="1" vertex="1">
          <mxGeometry x="414" y="290" width="110" height="50" as="geometry" />
        </mxCell>
        <mxCell id="VmMUlvY6stepmoY7ygG8-2" style="rounded=0;orthogonalLoop=1;jettySize=auto;html=1;entryX=0;entryY=0.5;entryDx=0;entryDy=0;fillColor=#ffe6cc;strokeColor=#d79b00;exitX=0.747;exitY=0.061;exitDx=0;exitDy=0;exitPerimeter=0;dashed=1;fontSize=14;endArrow=open;endFill=0;" parent="1" source="VmMUlvY6stepmoY7ygG8-1" target="VmMUlvY6stepmoY7ygG8-5" edge="1">
          <mxGeometry relative="1" as="geometry">
            <mxPoint x="495" y="263" as="sourcePoint" />
          </mxGeometry>
        </mxCell>
        <mxCell id="VmMUlvY6stepmoY7ygG8-3" style="rounded=0;orthogonalLoop=1;jettySize=auto;html=1;entryX=0;entryY=0.5;entryDx=0;entryDy=0;fillColor=#ffe6cc;strokeColor=#d79b00;exitX=1;exitY=0;exitDx=0;exitDy=0;dashed=1;fontSize=14;endArrow=open;endFill=0;" parent="1" source="VmMUlvY6stepmoY7ygG8-1" target="VmMUlvY6stepmoY7ygG8-6" edge="1">
          <mxGeometry relative="1" as="geometry">
            <mxPoint x="516" y="280" as="sourcePoint" />
          </mxGeometry>
        </mxCell>
        <mxCell id="VmMUlvY6stepmoY7ygG8-4" style="rounded=0;orthogonalLoop=1;jettySize=auto;html=1;exitX=1;exitY=1;exitDx=0;exitDy=0;entryX=0;entryY=0.5;entryDx=0;entryDy=0;fillColor=#ffe6cc;strokeColor=#d79b00;dashed=1;fontSize=14;endArrow=open;endFill=0;" parent="1" source="VmMUlvY6stepmoY7ygG8-1" target="VmMUlvY6stepmoY7ygG8-7" edge="1">
          <mxGeometry relative="1" as="geometry">
            <mxPoint x="503" y="294" as="sourcePoint" />
          </mxGeometry>
        </mxCell>
        <mxCell id="VmMUlvY6stepmoY7ygG8-5" value="Thêm&lt;br&gt;môn học" style="ellipse;whiteSpace=wrap;html=1;fillColor=#ffe6cc;strokeColor=#d79b00;fontSize=14;" parent="1" vertex="1">
          <mxGeometry x="575" y="190" width="90" height="40" as="geometry" />
        </mxCell>
        <mxCell id="VmMUlvY6stepmoY7ygG8-6" value="Sửa môn học" style="ellipse;whiteSpace=wrap;html=1;fillColor=#ffe6cc;strokeColor=#d79b00;fontSize=14;" parent="1" vertex="1">
          <mxGeometry x="586" y="265" width="90" height="40" as="geometry" />
        </mxCell>
        <mxCell id="VmMUlvY6stepmoY7ygG8-7" value="Xoá môn học" style="ellipse;whiteSpace=wrap;html=1;fillColor=#ffe6cc;strokeColor=#d79b00;fontSize=14;" parent="1" vertex="1">
          <mxGeometry x="586" y="340" width="90" height="40" as="geometry" />
        </mxCell>
        <mxCell id="VmMUlvY6stepmoY7ygG8-8" value="&lt;font style=&quot;font-size: 14px;&quot;&gt;&amp;lt;&amp;lt;extend&amp;gt;&amp;gt;&lt;/font&gt;" style="text;html=1;strokeColor=none;fillColor=none;align=center;verticalAlign=middle;whiteSpace=wrap;rounded=0;rotation=-45;fontSize=14;" parent="1" vertex="1">
          <mxGeometry x="498" y="231" width="60" height="30" as="geometry" />
        </mxCell>
        <mxCell id="VmMUlvY6stepmoY7ygG8-9" value="&lt;font style=&quot;font-size: 14px;&quot;&gt;&amp;lt;&amp;lt;extend&amp;gt;&amp;gt;&lt;/font&gt;" style="text;html=1;strokeColor=none;fillColor=none;align=center;verticalAlign=middle;whiteSpace=wrap;rounded=0;rotation=-5;fontSize=14;" parent="1" vertex="1">
          <mxGeometry x="518" y="266" width="60" height="30" as="geometry" />
        </mxCell>
        <mxCell id="VmMUlvY6stepmoY7ygG8-10" value="&lt;font style=&quot;font-size: 14px;&quot;&gt;&amp;lt;&amp;lt;extend&amp;gt;&amp;gt;&lt;/font&gt;" style="text;html=1;strokeColor=none;fillColor=none;align=center;verticalAlign=middle;whiteSpace=wrap;rounded=0;rotation=20;fontSize=14;" parent="1" vertex="1">
          <mxGeometry x="525" y="324" width="60" height="30" as="geometry" />
        </mxCell>
        <mxCell id="VmMUlvY6stepmoY7ygG8-11" style="rounded=0;orthogonalLoop=1;jettySize=auto;html=1;entryX=0;entryY=0.5;entryDx=0;entryDy=0;fillColor=#f8cecc;strokeColor=#b85450;fontSize=14;" parent="1" source="VmMUlvY6stepmoY7ygG8-12" edge="1">
          <mxGeometry relative="1" as="geometry">
            <mxPoint x="414.0000000000001" y="315" as="targetPoint" />
          </mxGeometry>
        </mxCell>
        <mxCell id="VmMUlvY6stepmoY7ygG8-12" value="Quản trị viên" style="shape=umlActor;verticalLabelPosition=bottom;verticalAlign=top;html=1;outlineConnect=0;fillColor=#f8cecc;strokeColor=#b85450;fontSize=14;" parent="1" vertex="1">
          <mxGeometry x="290" y="285.00000000000006" width="30" height="60" as="geometry" />
        </mxCell>
        <mxCell id="VmMUlvY6stepmoY7ygG8-13" style="rounded=0;orthogonalLoop=1;jettySize=auto;html=1;entryX=0;entryY=0;entryDx=0;entryDy=0;fillColor=#ffe6cc;strokeColor=#d79b00;endArrow=open;endFill=0;dashed=1;exitX=0.5;exitY=1;exitDx=0;exitDy=0;" parent="1" source="VmMUlvY6stepmoY7ygG8-14" target="VmMUlvY6stepmoY7ygG8-1" edge="1">
          <mxGeometry relative="1" as="geometry">
            <mxPoint x="325.5" y="106" as="targetPoint" />
            <mxPoint x="325" y="196" as="sourcePoint" />
          </mxGeometry>
        </mxCell>
        <mxCell id="VmMUlvY6stepmoY7ygG8-14" value="Đăng nhập" style="ellipse;whiteSpace=wrap;html=1;fillColor=#ffe6cc;strokeColor=#d79b00;fontSize=14;" parent="1" vertex="1">
          <mxGeometry x="380" y="170" width="90" height="40" as="geometry" />
        </mxCell>
        <mxCell id="VmMUlvY6stepmoY7ygG8-15" value="&lt;font&gt;&amp;lt;&amp;lt;include&amp;gt;&amp;gt;&lt;/font&gt;" style="text;html=1;strokeColor=none;fillColor=none;align=center;verticalAlign=middle;whiteSpace=wrap;rounded=0;rotation=90;fontSize=14;" parent="1" vertex="1">
          <mxGeometry x="414" y="236" width="60" height="30" as="geometry" />
        </mxCell>
      </root>
    </mxGraphModel>
  </diagram>
</mxfile>
